<?xml version="1.0" encoding="UTF-8"?>
<svg version="1.1" xmlns="http://www.w3.org/2000/svg" width="50" height="50">
<path d="M0 0 C-1.57687237 12.4489924 -4.48718465 19.65741193 -14 28 C-14.969375 28.61875 -15.93875 29.2375 -16.9375 29.875 C-19.86568726 32.8919202 -19.42651343 35.57646009 -19.63671875 39.6484375 C-20 42 -20 42 -22.3125 44.625 C-25 46 -25 46 -29 46 C-29.66 44.35 -30.32 42.7 -31 41 C-34.465 41.495 -34.465 41.495 -38 42 C-38.28875 42.78375 -38.5775 43.5675 -38.875 44.375 C-40 47 -40 47 -42 49 C-44.68839385 49.26991906 -47.29141936 49.08737357 -50 49 C-50.36557502 41.56664128 -50.36557502 41.56664128 -48.75 39.0625 C-46.83875922 37.90210381 -45.19702465 37.37879735 -43 37 C-42.67 34.36 -42.34 31.72 -42 29 C-44.475 28.01 -44.475 28.01 -47 27 C-46.39898727 23.6343287 -45.34186214 21.5050031 -43 19 C-40.90625 18.8125 -40.90625 18.8125 -38.5 19 C-33.85594175 18.76271235 -31.82155955 17.26178596 -28.7109375 13.84179688 C-27.79899061 12.76299937 -26.90100359 11.67219709 -26.01953125 10.56835938 C-19.23026797 2.15422668 -10.55082304 -0.42203292 0 0 Z M-23.5625 12.0625 C-28.674877 17.46618053 -33.41213721 23.14339491 -38 29 C-36.58902801 32.88335083 -35.53556325 34.76080994 -32 37 C-26.06472884 34.50169852 -21.32260358 29.53740884 -16.52539062 25.33496094 C-15.27045012 24.23668714 -14.00394789 23.15163838 -12.734375 22.0703125 C-8.07338968 17.8348954 -5.63910118 13.07790934 -4 7 C-4 5.68 -4 4.36 -4 3 C-12.22547261 3 -17.76939505 6.36703165 -23.5625 12.0625 Z M-41.8125 23 C-42.204375 23.66 -42.59625 24.32 -43 25 C-41.68 25.33 -40.36 25.66 -39 26 C-37.68 24.35 -36.36 22.7 -35 21 C-38.91207436 20.53608535 -38.91207436 20.53608535 -41.8125 23 Z M-40 34 C-39.34 35.32 -38.68 36.64 -38 38 C-37.01 38 -36.02 38 -35 38 C-36.65 36.68 -38.3 35.36 -40 34 Z M-25.125 35.75 C-25.74375 36.4925 -26.3625 37.235 -27 38 C-26.86358623 40.21858253 -26.86358623 40.21858253 -26 42 C-23.9004467 40.84315671 -23.9004467 40.84315671 -22 39 C-21.66574265 36.37374861 -21.66574265 36.37374861 -22 34 C-23.33015153 33.89404879 -23.33015153 33.89404879 -25.125 35.75 Z M-42 39 C-44.69694835 40.10141725 -44.69694835 40.10141725 -47 42 C-47 43.32 -47 44.64 -47 46 C-44.54775306 45.89386164 -44.54775306 45.89386164 -42 45 C-40.62533375 42.52363988 -40.62533375 42.52363988 -40 40 C-40.66 39.67 -41.32 39.34 -42 39 Z " fill="#000000" transform="translate(50,1)"/>
<path d="M0 0 C3 0.25 3 0.25 5 2.25 C5.25 5.25 5.25 5.25 5 8.25 C3 10.25 3 10.25 0 10.5 C-3 10.25 -3 10.25 -5 8.25 C-5.25 5.25 -5.25 5.25 -5 2.25 C-3 0.25 -3 0.25 0 0 Z M-2 3.25 C-2 4.57 -2 5.89 -2 7.25 C-0.68 7.25 0.64 7.25 2 7.25 C2 5.93 2 4.61 2 3.25 C0.68 3.25 -0.64 3.25 -2 3.25 Z " fill="#000000" transform="translate(34,10.75)"/>
</svg>
